<svg version="1.1" id="Layer_1" xmlns="http://www.w3.org/2000/svg" xmlns:xlink="http://www.w3.org/1999/xlink" x="0px" y="0px"
	 width="100%" viewBox="0 0 1230 1800" enable-background="new 0 0 1230 1800" xml:space="preserve">
<path fill="#FFFFFF" opacity="1.000000" stroke="none" 
	d="
M1.000000,703.000000 
	C1.000000,468.666718 1.000000,234.833420 1.000000,1.000094 
	C410.999878,1.000063 820.999756,1.000063 1230.999756,1.000031 
	C1230.999756,600.999817 1230.999756,1200.999634 1230.999878,1800.999512 
	C821.000305,1800.999756 411.000580,1800.999756 1.000444,1800.999878 
	C1.000000,1435.166626 1.000000,1069.333374 1.000000,703.000000 
M307.771545,739.790405 
	C283.436249,727.599365 257.772797,723.553833 231.175247,729.193787 
	C201.805176,735.421692 181.323364,752.102783 174.329025,782.460510 
	C172.167740,791.841064 171.153244,801.481628 169.480759,810.979858 
	C165.309326,834.669739 157.777847,857.427551 148.136505,879.308228 
	C131.808655,916.363770 114.887138,953.176453 97.339577,989.670227 
	C81.798164,1021.991760 75.409218,1055.068115 84.727356,1090.290039 
	C98.442734,1142.133179 111.349159,1194.211182 126.199249,1245.728027 
	C143.426208,1305.490356 165.541779,1363.511353 195.919052,1418.004395 
	C230.007355,1479.154785 271.440155,1535.103516 317.953583,1587.331055 
	C343.597717,1616.125488 370.915802,1643.115356 403.133820,1664.696045 
	C437.960083,1688.023804 475.848663,1702.593628 518.079041,1704.088013 
	C535.027222,1704.687622 552.022766,1703.843140 568.982422,1704.250732 
	C599.935669,1704.994507 630.880798,1706.109985 661.824768,1707.200073 
	C713.718689,1709.027832 765.601440,1711.220947 817.504639,1712.712158 
	C837.801086,1713.295288 858.140808,1712.447998 878.459473,1712.162354 
	C905.426941,1711.783325 932.344421,1711.094727 959.138062,1707.221191 
	C1010.614075,1699.779297 1050.918091,1674.516602 1080.650635,1632.175781 
	C1108.549561,1592.446167 1122.983032,1547.491333 1131.010132,1500.142944 
	C1137.794312,1460.125488 1139.070190,1419.692749 1139.788940,1379.241211 
	C1140.360107,1347.096558 1140.498047,1314.944092 1140.828735,1282.795166 
	C1141.166382,1249.977295 1141.538086,1217.159668 1141.834229,1184.341431 
	C1142.207153,1143.028076 1142.545532,1101.714233 1142.849365,1060.400269 
	C1143.210938,1011.252563 1143.563354,962.104736 1143.840942,912.956543 
	C1144.214355,846.809265 1144.494995,780.661438 1144.850708,714.514099 
	C1145.034302,680.357666 1145.324829,646.201843 1145.511841,612.045410 
	C1145.761841,566.390076 1145.947998,520.734314 1146.181641,475.078888 
	C1146.318481,448.322968 1139.717651,423.722565 1122.769775,402.516815 
	C1099.690186,373.638977 1070.085571,357.612854 1032.637329,358.245880 
	C1007.518982,358.670441 985.848328,368.576660 966.914917,384.709717 
	C961.814514,389.055786 957.109924,393.866272 952.170959,398.513153 
	C952.041260,398.079102 951.880188,397.785645 951.875488,397.489716 
	C951.298401,360.857849 950.970520,324.220062 950.087280,287.595703 
	C949.445557,260.984192 949.078186,234.301880 946.752930,207.812271 
	C944.168701,178.372665 929.753113,155.198853 903.742310,140.305267 
	C862.883972,116.910110 800.736023,117.565376 759.781860,153.471756 
	C757.861694,155.155212 755.936279,156.832642 753.756653,158.737106 
	C752.979126,156.442032 752.473083,154.872543 751.917786,153.320724 
	C742.799500,127.841125 726.105713,109.331154 700.971191,99.009392 
	C672.149841,87.173615 642.459717,85.614227 612.446289,93.530716 
	C589.972168,99.458611 570.629944,110.662018 557.069092,130.207031 
	C545.916748,146.280716 541.568054,164.707230 540.131592,183.780502 
	C538.457581,206.005981 537.627991,228.295670 536.484314,250.560181 
	C535.883728,262.251984 535.394714,273.949524 534.888000,284.935608 
	C526.378662,280.558838 518.319641,275.476318 509.599579,272.102173 
	C482.094757,261.459625 453.707336,261.361328 425.056885,266.512482 
	C407.318787,269.701660 391.299683,276.448639 378.206635,289.194366 
	C359.450714,307.452698 351.035736,330.612610 349.260773,355.877655 
	C347.454102,381.593231 347.525818,407.455048 347.216400,433.258118 
	C346.768860,470.576813 346.773285,507.900726 346.483063,545.221619 
	C346.216217,579.537537 345.810760,613.852234 345.473633,648.167603 
	C345.136475,682.485779 344.799103,716.804016 344.484497,751.122375 
	C344.426331,757.466187 344.476166,763.810913 344.476166,770.155273 
	C334.229156,757.108826 322.386536,747.380005 307.771545,739.790405 
z"/>
<path fill="#030303" opacity="1.000000" stroke="none" 
	d="
M308.116913,739.925781 
	C322.386536,747.380005 334.229156,757.108826 344.476166,770.155273 
	C344.476166,763.810913 344.426331,757.466187 344.484497,751.122375 
	C344.799103,716.804016 345.136475,682.485779 345.473633,648.167603 
	C345.810760,613.852234 346.216217,579.537537 346.483063,545.221619 
	C346.773285,507.900726 346.768860,470.576813 347.216400,433.258118 
	C347.525818,407.455048 347.454102,381.593231 349.260773,355.877655 
	C351.035736,330.612610 359.450714,307.452698 378.206635,289.194366 
	C391.299683,276.448639 407.318787,269.701660 425.056885,266.512482 
	C453.707336,261.361328 482.094757,261.459625 509.599579,272.102173 
	C518.319641,275.476318 526.378662,280.558838 534.888000,284.935608 
	C535.394714,273.949524 535.883728,262.251984 536.484314,250.560181 
	C537.627991,228.295670 538.457581,206.005981 540.131592,183.780502 
	C541.568054,164.707230 545.916748,146.280716 557.069092,130.207031 
	C570.629944,110.662018 589.972168,99.458611 612.446289,93.530716 
	C642.459717,85.614227 672.149841,87.173615 700.971191,99.009392 
	C726.105713,109.331154 742.799500,127.841125 751.917786,153.320724 
	C752.473083,154.872543 752.979126,156.442032 753.756653,158.737106 
	C755.936279,156.832642 757.861694,155.155212 759.781860,153.471756 
	C800.736023,117.565376 862.883972,116.910110 903.742310,140.305267 
	C929.753113,155.198853 944.168701,178.372665 946.752930,207.812271 
	C949.078186,234.301880 949.445557,260.984192 950.087280,287.595703 
	C950.970520,324.220062 951.298401,360.857849 951.875488,397.489716 
	C951.880188,397.785645 952.041260,398.079102 952.170959,398.513153 
	C957.109924,393.866272 961.814514,389.055786 966.914917,384.709717 
	C985.848328,368.576660 1007.518982,358.670441 1032.637329,358.245880 
	C1070.085571,357.612854 1099.690186,373.638977 1122.769775,402.516815 
	C1139.717651,423.722565 1146.318481,448.322968 1146.181641,475.078888 
	C1145.947998,520.734314 1145.761841,566.390076 1145.511841,612.045410 
	C1145.324829,646.201843 1145.034302,680.357666 1144.850708,714.514099 
	C1144.494995,780.661438 1144.214355,846.809265 1143.840942,912.956543 
	C1143.563354,962.104736 1143.210938,1011.252563 1142.849365,1060.400269 
	C1142.545532,1101.714233 1142.207153,1143.028076 1141.834229,1184.341431 
	C1141.538086,1217.159668 1141.166382,1249.977295 1140.828735,1282.795166 
	C1140.498047,1314.944092 1140.360107,1347.096558 1139.788940,1379.241211 
	C1139.070190,1419.692749 1137.794312,1460.125488 1131.010132,1500.142944 
	C1122.983032,1547.491333 1108.549561,1592.446167 1080.650635,1632.175781 
	C1050.918091,1674.516602 1010.614075,1699.779297 959.138062,1707.221191 
	C932.344421,1711.094727 905.426941,1711.783325 878.459473,1712.162354 
	C858.140808,1712.447998 837.801086,1713.295288 817.504639,1712.712158 
	C765.601440,1711.220947 713.718689,1709.027832 661.824768,1707.200073 
	C630.880798,1706.109985 599.935669,1704.994507 568.982422,1704.250732 
	C552.022766,1703.843140 535.027222,1704.687622 518.079041,1704.088013 
	C475.848663,1702.593628 437.960083,1688.023804 403.133820,1664.696045 
	C370.915802,1643.115356 343.597717,1616.125488 317.953583,1587.331055 
	C271.440155,1535.103516 230.007355,1479.154785 195.919052,1418.004395 
	C165.541779,1363.511353 143.426208,1305.490356 126.199249,1245.728027 
	C111.349159,1194.211182 98.442734,1142.133179 84.727356,1090.290039 
	C75.409218,1055.068115 81.798164,1021.991760 97.339577,989.670227 
	C114.887138,953.176453 131.808655,916.363770 148.136505,879.308228 
	C157.777847,857.427551 165.309326,834.669739 169.480759,810.979858 
	C171.153244,801.481628 172.167740,791.841064 174.329025,782.460510 
	C181.323364,752.102783 201.805176,735.421692 231.175247,729.193787 
	C257.772797,723.553833 283.436249,727.599365 308.116913,739.925781 
M1017.377747,385.652832 
	C1015.139465,386.299347 1012.851013,386.809540 1010.670593,387.613068 
	C983.242432,397.720978 965.852783,418.268616 952.939331,443.391754 
	C952.228821,444.774078 952.191406,446.615173 952.204956,448.239716 
	C952.380005,469.226593 952.722290,490.212402 952.827759,511.199463 
	C953.206177,586.513611 953.554504,661.827942 953.827087,737.142578 
	C954.019470,790.304504 954.065735,843.466919 954.193787,896.629150 
	C954.205444,901.452454 954.654236,906.295837 954.344116,911.093994 
	C953.863464,918.528870 948.750244,922.812622 941.348694,922.534851 
	C933.989319,922.258606 929.300354,917.531799 929.165588,910.169006 
	C929.065063,904.671997 929.026428,899.173523 928.997803,893.675537 
	C928.712463,838.856445 928.414856,784.037415 928.160095,729.218201 
	C927.808594,653.567993 927.512268,577.917603 927.149963,502.267487 
	C926.973572,465.446930 926.883118,428.624603 926.426636,391.807129 
	C925.842468,344.684753 925.109680,297.562378 924.043762,250.448990 
	C923.732239,236.681351 923.250122,222.727844 920.781677,209.237274 
	C915.239502,178.947418 896.964355,159.967773 866.688110,152.945236 
	C851.382446,149.395111 836.001099,148.958847 820.615601,152.034958 
	C795.428223,157.070816 774.547852,168.884293 760.779846,191.319778 
	C759.471741,193.451401 758.626953,196.239868 758.605896,198.732178 
	C758.350220,229.056076 758.283630,259.381592 758.180115,289.706757 
	C758.112427,309.536591 758.071655,329.366547 758.006897,349.196381 
	C757.731506,433.514862 757.409851,517.833252 757.188538,602.151917 
	C757.049438,655.148926 757.103149,708.146545 756.986633,761.143616 
	C756.892090,804.133972 756.689941,847.124023 756.494812,890.114075 
	C756.454590,898.966370 751.619751,904.025452 743.604736,903.853638 
	C735.804932,903.686523 731.148682,898.649536 731.174377,890.153625 
	C731.219238,875.331604 731.404602,860.509949 731.475159,845.687927 
	C731.610840,817.195374 731.727173,788.702637 731.814453,760.209900 
	C731.898682,732.713989 731.927551,705.217957 731.995789,677.721985 
	C732.152954,614.403015 732.304321,551.083923 732.490417,487.765045 
	C732.551086,467.106995 732.777954,446.449341 732.815063,425.791290 
	C732.956177,347.297607 733.128906,268.803802 733.126404,190.310043 
	C733.125366,155.982300 714.662964,129.652939 683.482910,119.659241 
	C660.699768,112.356873 637.579712,112.170555 614.721313,119.234024 
	C591.171997,126.511032 574.018188,141.140961 567.413879,165.555634 
	C564.528992,176.220444 562.950012,187.439362 562.393555,198.488022 
	C561.464294,216.938278 562.137512,235.463089 561.580139,253.939743 
	C560.837402,278.560120 559.105530,303.155914 558.646973,327.778107 
	C558.203491,351.590820 558.874023,375.423340 558.988037,399.247498 
	C559.294983,463.398926 559.630066,527.550354 559.833130,591.702087 
	C560.026184,652.697510 560.066040,713.693420 560.175476,774.689087 
	C560.177856,776.021851 560.211548,777.354614 560.222534,778.687439 
	C560.429260,803.674072 560.748535,828.660583 560.775269,853.647400 
	C560.783936,861.768555 555.736755,866.278931 547.801392,866.167297 
	C539.953308,866.057007 535.549011,861.389038 535.492554,853.073730 
	C535.319641,827.581482 535.121094,802.089294 535.001343,776.596741 
	C534.699951,712.456726 534.388489,648.316650 534.169556,584.176270 
	C533.894226,503.521088 533.706970,422.865570 533.481934,342.210205 
	C533.474976,339.710876 533.257141,337.190430 533.500977,334.715637 
	C534.943237,320.075012 527.177490,310.445984 515.889343,303.080780 
	C510.931458,299.845947 505.488159,296.994934 499.873077,295.188934 
	C473.848419,286.818542 447.365204,286.667633 421.073608,293.324310 
	C398.738098,298.979370 383.486176,313.193420 377.936737,335.862762 
	C375.154633,347.227722 373.617126,359.137146 373.370544,370.839417 
	C372.528381,410.809326 372.551544,450.797028 372.165588,490.777161 
	C371.532013,556.410583 370.835083,622.043457 370.167908,687.676514 
	C369.832611,720.659424 369.520874,753.642578 369.167999,786.625305 
	C368.743896,826.269043 368.564209,865.918091 367.771942,905.554626 
	C366.863708,950.991089 365.417084,996.416870 364.169922,1041.846313 
	C363.484741,1066.804688 362.973846,1091.771973 361.850647,1116.711304 
	C361.526398,1123.911011 359.883789,1131.184082 357.843445,1138.129272 
	C356.365540,1143.159912 352.183533,1146.402100 346.513275,1146.377319 
	C341.027740,1146.353394 337.045715,1143.780762 334.825897,1138.591431 
	C333.259674,1134.930176 331.453705,1131.372070 329.807098,1127.744141 
	C317.289795,1100.166260 311.444794,1071.561646 316.860107,1041.320679 
	C320.110931,1023.166687 324.283844,1005.150574 326.816650,986.902466 
	C329.741669,965.828430 331.845306,944.604980 333.363831,923.379089 
	C335.992340,886.636902 336.341644,849.851807 331.928864,813.187134 
	C329.685577,794.548401 322.069458,778.665527 306.104706,767.817383 
	C287.655823,755.281311 267.057953,750.075745 244.991547,752.296875 
	C216.596680,755.155090 202.992706,767.617676 197.870605,795.848633 
	C193.950302,817.455627 190.156647,838.987549 182.415710,859.663879 
	C165.633316,904.490540 146.325317,948.219910 124.335495,990.694641 
	C107.882088,1022.475464 101.557465,1054.732178 110.518272,1090.269165 
	C127.653816,1158.225708 145.870361,1225.841675 168.254822,1292.265259 
	C180.931839,1329.883057 195.256271,1366.843872 214.744476,1401.631592 
	C239.455795,1445.743164 268.991150,1486.534546 299.766052,1526.488037 
	C326.954193,1561.784790 356.372345,1594.986572 390.447845,1623.939209 
	C432.438538,1659.617310 481.091583,1677.331909 535.825867,1678.914917 
	C552.637024,1679.401245 569.490479,1678.474365 586.298401,1679.011841 
	C619.401855,1680.070190 652.481262,1681.859985 685.581116,1683.055054 
	C730.494324,1684.676514 775.409546,1686.392578 820.339294,1687.339966 
	C844.298340,1687.845215 868.316711,1687.408813 892.258667,1686.312622 
	C914.832153,1685.279419 937.517639,1684.017212 959.835205,1680.707397 
	C991.548523,1676.003906 1019.297668,1662.136353 1042.065063,1639.085449 
	C1064.619751,1616.249878 1079.189331,1588.638794 1089.947876,1558.787598 
	C1107.763062,1509.357056 1113.501465,1457.864624 1114.661133,1405.819092 
	C1115.763306,1356.356445 1115.466797,1306.863281 1115.851440,1257.384033 
	C1116.119385,1222.906494 1116.529175,1188.430054 1116.821045,1153.952637 
	C1117.186279,1110.808350 1117.517944,1067.663452 1117.823486,1024.518677 
	C1118.179688,974.205872 1118.506714,923.893005 1118.819336,873.579956 
	C1119.169189,817.267090 1119.547852,760.954346 1119.802612,704.641113 
	C1120.007080,659.478882 1119.973877,614.315674 1120.186401,569.153503 
	C1120.295288,546.000671 1120.948242,522.848877 1120.904297,499.697418 
	C1120.875366,484.421082 1121.640381,468.892578 1119.261108,453.920166 
	C1113.099121,415.143799 1068.814331,373.889862 1017.377747,385.652832 
z"/>
<path fill="#FFFFFF" opacity="1.000000" stroke="none" 
	d="
M1017.768311,385.505676 
	C1068.814331,373.889862 1113.099121,415.143799 1119.261108,453.920166 
	C1121.640381,468.892578 1120.875366,484.421082 1120.904297,499.697418 
	C1120.948242,522.848877 1120.295288,546.000671 1120.186401,569.153503 
	C1119.973877,614.315674 1120.007080,659.478882 1119.802612,704.641113 
	C1119.547852,760.954346 1119.169189,817.267090 1118.819336,873.579956 
	C1118.506714,923.893005 1118.179688,974.205872 1117.823486,1024.518677 
	C1117.517944,1067.663452 1117.186279,1110.808350 1116.821045,1153.952637 
	C1116.529175,1188.430054 1116.119385,1222.906494 1115.851440,1257.384033 
	C1115.466797,1306.863281 1115.763306,1356.356445 1114.661133,1405.819092 
	C1113.501465,1457.864624 1107.763062,1509.357056 1089.947876,1558.787598 
	C1079.189331,1588.638794 1064.619751,1616.249878 1042.065063,1639.085449 
	C1019.297668,1662.136353 991.548523,1676.003906 959.835205,1680.707397 
	C937.517639,1684.017212 914.832153,1685.279419 892.258667,1686.312622 
	C868.316711,1687.408813 844.298340,1687.845215 820.339294,1687.339966 
	C775.409546,1686.392578 730.494324,1684.676514 685.581116,1683.055054 
	C652.481262,1681.859985 619.401855,1680.070190 586.298401,1679.011841 
	C569.490479,1678.474365 552.637024,1679.401245 535.825867,1678.914917 
	C481.091583,1677.331909 432.438538,1659.617310 390.447845,1623.939209 
	C356.372345,1594.986572 326.954193,1561.784790 299.766052,1526.488037 
	C268.991150,1486.534546 239.455795,1445.743164 214.744476,1401.631592 
	C195.256271,1366.843872 180.931839,1329.883057 168.254822,1292.265259 
	C145.870361,1225.841675 127.653816,1158.225708 110.518272,1090.269165 
	C101.557465,1054.732178 107.882088,1022.475464 124.335495,990.694641 
	C146.325317,948.219910 165.633316,904.490540 182.415710,859.663879 
	C190.156647,838.987549 193.950302,817.455627 197.870605,795.848633 
	C202.992706,767.617676 216.596680,755.155090 244.991547,752.296875 
	C267.057953,750.075745 287.655823,755.281311 306.104706,767.817383 
	C322.069458,778.665527 329.685577,794.548401 331.928864,813.187134 
	C336.341644,849.851807 335.992340,886.636902 333.363831,923.379089 
	C331.845306,944.604980 329.741669,965.828430 326.816650,986.902466 
	C324.283844,1005.150574 320.110931,1023.166687 316.860107,1041.320679 
	C311.444794,1071.561646 317.289795,1100.166260 329.807098,1127.744141 
	C331.453705,1131.372070 333.259674,1134.930176 334.825897,1138.591431 
	C337.045715,1143.780762 341.027740,1146.353394 346.513275,1146.377319 
	C352.183533,1146.402100 356.365540,1143.159912 357.843445,1138.129272 
	C359.883789,1131.184082 361.526398,1123.911011 361.850647,1116.711304 
	C362.973846,1091.771973 363.484741,1066.804688 364.169922,1041.846313 
	C365.417084,996.416870 366.863708,950.991089 367.771942,905.554626 
	C368.564209,865.918091 368.743896,826.269043 369.167999,786.625305 
	C369.520874,753.642578 369.832611,720.659424 370.167908,687.676514 
	C370.835083,622.043457 371.532013,556.410583 372.165588,490.777161 
	C372.551544,450.797028 372.528381,410.809326 373.370544,370.839417 
	C373.617126,359.137146 375.154633,347.227722 377.936737,335.862762 
	C383.486176,313.193420 398.738098,298.979370 421.073608,293.324310 
	C447.365204,286.667633 473.848419,286.818542 499.873077,295.188934 
	C505.488159,296.994934 510.931458,299.845947 515.889343,303.080780 
	C527.177490,310.445984 534.943237,320.075012 533.500977,334.715637 
	C533.257141,337.190430 533.474976,339.710876 533.481934,342.210205 
	C533.706970,422.865570 533.894226,503.521088 534.169556,584.176270 
	C534.388489,648.316650 534.699951,712.456726 535.001343,776.596741 
	C535.121094,802.089294 535.319641,827.581482 535.492554,853.073730 
	C535.549011,861.389038 539.953308,866.057007 547.801392,866.167297 
	C555.736755,866.278931 560.783936,861.768555 560.775269,853.647400 
	C560.748535,828.660583 560.429260,803.674072 560.222534,778.687439 
	C560.211548,777.354614 560.177856,776.021851 560.175476,774.689087 
	C560.066040,713.693420 560.026184,652.697510 559.833130,591.702087 
	C559.630066,527.550354 559.294983,463.398926 558.988037,399.247498 
	C558.874023,375.423340 558.203491,351.590820 558.646973,327.778107 
	C559.105530,303.155914 560.837402,278.560120 561.580139,253.939743 
	C562.137512,235.463089 561.464294,216.938278 562.393555,198.488022 
	C562.950012,187.439362 564.528992,176.220444 567.413879,165.555634 
	C574.018188,141.140961 591.171997,126.511032 614.721313,119.234024 
	C637.579712,112.170555 660.699768,112.356873 683.482910,119.659241 
	C714.662964,129.652939 733.125366,155.982300 733.126404,190.310043 
	C733.128906,268.803802 732.956177,347.297607 732.815063,425.791290 
	C732.777954,446.449341 732.551086,467.106995 732.490417,487.765045 
	C732.304321,551.083923 732.152954,614.403015 731.995789,677.721985 
	C731.927551,705.217957 731.898682,732.713989 731.814453,760.209900 
	C731.727173,788.702637 731.610840,817.195374 731.475159,845.687927 
	C731.404602,860.509949 731.219238,875.331604 731.174377,890.153625 
	C731.148682,898.649536 735.804932,903.686523 743.604736,903.853638 
	C751.619751,904.025452 756.454590,898.966370 756.494812,890.114075 
	C756.689941,847.124023 756.892090,804.133972 756.986633,761.143616 
	C757.103149,708.146545 757.049438,655.148926 757.188538,602.151917 
	C757.409851,517.833252 757.731506,433.514862 758.006897,349.196381 
	C758.071655,329.366547 758.112427,309.536591 758.180115,289.706757 
	C758.283630,259.381592 758.350220,229.056076 758.605896,198.732178 
	C758.626953,196.239868 759.471741,193.451401 760.779846,191.319778 
	C774.547852,168.884293 795.428223,157.070816 820.615601,152.034958 
	C836.001099,148.958847 851.382446,149.395111 866.688110,152.945236 
	C896.964355,159.967773 915.239502,178.947418 920.781677,209.237274 
	C923.250122,222.727844 923.732239,236.681351 924.043762,250.448990 
	C925.109680,297.562378 925.842468,344.684753 926.426636,391.807129 
	C926.883118,428.624603 926.973572,465.446930 927.149963,502.267487 
	C927.512268,577.917603 927.808594,653.567993 928.160095,729.218201 
	C928.414856,784.037415 928.712463,838.856445 928.997803,893.675537 
	C929.026428,899.173523 929.065063,904.671997 929.165588,910.169006 
	C929.300354,917.531799 933.989319,922.258606 941.348694,922.534851 
	C948.750244,922.812622 953.863464,918.528870 954.344116,911.093994 
	C954.654236,906.295837 954.205444,901.452454 954.193787,896.629150 
	C954.065735,843.466919 954.019470,790.304504 953.827087,737.142578 
	C953.554504,661.827942 953.206177,586.513611 952.827759,511.199463 
	C952.722290,490.212402 952.380005,469.226593 952.204956,448.239716 
	C952.191406,446.615173 952.228821,444.774078 952.939331,443.391754 
	C965.852783,418.268616 983.242432,397.720978 1010.670593,387.613068 
	C1012.851013,386.809540 1015.139465,386.299347 1017.768311,385.505676 
z"/>
</svg>