<svg version="1.1" id="Layer_1" xmlns="http://www.w3.org/2000/svg" xmlns:xlink="http://www.w3.org/1999/xlink" x="0px" y="0px"
	 width="100%" viewBox="0 0 608 1024" enable-background="new 0 0 608 1024" xml:space="preserve">
<path fill="#000000" opacity="1.000000" stroke="none" 
	d="
M50.730347,688.817627 
	C49.568871,669.121033 52.386181,650.340942 62.268661,633.885315 
	C78.384590,607.050171 95.883858,581.044006 112.907417,554.757935 
	C115.525925,550.714661 118.384781,546.715759 121.738564,543.289551 
	C125.505562,539.441223 125.713615,535.688599 124.379799,530.701355 
	C119.214081,511.386566 117.467262,491.418060 113.686958,471.827759 
	C105.810410,431.009979 97.990707,390.181152 90.219589,349.343170 
	C79.247208,291.682281 67.829346,234.105667 57.544922,176.314392 
	C54.253239,157.817413 50.262936,139.434418 48.213608,120.736839 
	C47.046261,110.086258 47.164726,99.489655 50.577202,89.115433 
	C53.552681,80.069733 59.124405,73.156799 67.691727,69.260910 
	C79.232491,64.012886 91.561081,61.601025 104.201988,63.066433 
	C122.027641,65.132881 132.782700,76.482689 139.112045,92.296547 
	C147.914017,114.288239 153.162659,137.398697 159.251816,160.213974 
	C175.037277,219.359772 190.532257,278.583282 206.059418,337.797729 
	C215.805344,374.964722 225.398911,412.171631 235.066101,449.359283 
	C235.478699,450.946442 235.944290,452.519806 236.744904,455.388489 
	C239.858002,440.139252 242.747849,426.162537 245.560745,412.170349 
	C253.162659,374.356140 260.701050,336.529144 268.320862,298.718536 
	C281.456909,233.535568 294.577118,168.349274 307.853485,103.194839 
	C310.078003,92.277924 312.652679,81.394348 319.126099,71.924118 
	C337.145020,45.563515 378.730011,41.986912 398.921875,65.209930 
	C408.247406,75.935410 411.053253,88.963280 409.821136,102.576027 
	C407.062653,133.053513 402.540558,163.333954 398.551636,193.672119 
	C394.064880,227.796860 389.782593,261.948547 385.260925,296.068573 
	C381.154968,327.051514 376.842194,358.006958 372.633026,388.976227 
	C371.897308,394.389526 371.222870,399.811157 370.396881,406.179169 
	C391.665955,393.832703 412.956726,394.777466 434.156158,404.549347 
	C456.464539,414.832367 466.156677,434.001465 469.616943,457.803802 
	C476.242340,454.758484 482.086334,451.615753 488.536530,449.989075 
	C511.217621,444.269196 532.586975,446.107025 551.276855,461.476379 
	C564.889282,472.670380 569.679077,488.191528 570.127197,505.033081 
	C570.783142,529.687378 568.187561,554.273010 567.638733,578.915100 
	C567.108459,602.722717 563.790955,626.306946 561.355530,649.964844 
	C557.219116,690.146973 558.464294,730.493164 558.316772,770.790894 
	C558.249695,789.122620 558.738892,807.467590 558.202148,825.783936 
	C557.151978,861.619873 552.361084,897.118652 538.016541,930.100464 
	C517.966675,976.200195 481.614166,1001.660400 431.595154,1007.376770 
	C415.649445,1009.199158 399.627563,1007.949341 383.646790,1008.412231 
	C374.991821,1008.662903 366.334106,1008.934082 357.676788,1008.965149 
	C326.022339,1009.078735 294.364594,1008.667480 262.753876,1007.115540 
	C228.352585,1005.426575 197.769958,992.713684 169.544617,973.442810 
	C139.862381,953.177429 120.800560,924.774658 106.158600,892.745850 
	C85.918915,848.472229 71.319885,802.411194 61.690945,754.722595 
	C57.311340,733.031982 53.274467,711.293030 50.730347,688.817627 
M534.095825,891.731506 
	C539.618652,868.489258 542.143250,844.858093 542.594421,821.033691 
	C542.973022,801.043640 542.574890,781.040161 542.725952,761.044189 
	C542.907166,737.058411 542.095520,713.062866 543.562195,689.086243 
	C543.940796,682.897705 543.619141,676.666443 543.619141,670.515686 
	C511.911896,687.487305 482.817749,687.641785 456.827972,659.662415 
	C454.815186,670.188599 452.829041,679.784180 446.657593,687.885437 
	C434.497528,703.848145 408.353821,718.030457 381.582428,709.493774 
	C352.947327,700.362915 335.548950,677.556946 336.901245,648.473877 
	C337.836182,628.366150 339.402679,608.288452 340.535278,588.188843 
	C340.837158,582.831848 340.580933,577.443298 340.580933,571.447388 
	C329.466797,583.387512 316.074249,591.174988 302.659241,598.951843 
	C273.264343,615.992432 244.167435,633.536743 214.173813,649.551880 
	C197.128479,658.653259 195.501892,667.406250 206.039352,683.517151 
	C220.770920,706.040466 238.808487,725.961609 255.589020,746.874023 
	C264.453247,757.920898 273.288971,769.008972 280.371735,781.325745 
	C282.878357,785.684631 281.868042,789.438599 278.174347,791.768188 
	C274.196228,794.277039 270.171753,793.572693 267.407684,789.248352 
	C253.164871,766.965942 235.285721,747.576538 218.491882,727.319214 
	C207.740616,714.350525 197.500626,701.001709 189.431320,686.134766 
	C180.523483,669.723022 183.038269,655.413757 196.971329,643.081482 
	C200.607880,639.862732 204.659164,637.254272 208.897675,634.900696 
	C245.167084,614.760742 281.392883,594.546570 315.942749,571.502258 
	C341.826324,554.238220 346.838409,525.642212 337.653351,499.531311 
	C334.605927,490.868225 328.243256,485.835968 318.975830,484.136169 
	C309.475311,482.393585 300.239014,483.503937 291.415314,486.587280 
	C244.564087,502.959106 198.546066,521.528564 152.384903,539.721924 
	C142.674850,543.548950 135.232529,549.698853 129.641327,558.335144 
	C122.852982,568.820679 116.161102,579.370300 109.252495,589.776001 
	C98.935509,605.315430 87.834541,620.311829 78.031891,636.219910 
	C66.039917,655.680786 63.554951,676.506714 66.687454,698.669128 
	C69.274902,716.975281 73.693108,734.886597 77.320892,752.970032 
	C86.820778,800.324280 101.279587,846.077332 121.045723,890.161926 
	C140.342575,933.199890 172.052338,963.138489 215.782974,980.526306 
	C239.900070,990.115540 265.306000,992.198669 290.811493,992.500305 
	C335.952057,993.034241 381.103455,994.036743 426.243683,991.867981 
	C458.412445,990.322449 484.234100,976.050110 505.748596,953.005737 
	C521.670227,935.951965 528.332825,914.473022 534.095825,891.731506 
M110.058258,370.697906 
	C110.165154,371.523193 110.228371,372.356873 110.385185,373.172577 
	C119.861473,422.465088 129.327271,471.759674 138.890747,521.035278 
	C139.301941,523.153992 138.647934,525.866150 141.249207,527.298889 
	C141.732162,527.199158 142.242432,527.177551 142.682831,526.990967 
	C169.675766,515.556335 197.245529,505.589020 224.562424,494.983063 
	C229.292511,493.146545 230.028534,491.132111 228.809906,486.519531 
	C218.697342,448.243134 208.841507,409.898956 198.857895,371.588379 
	C177.964035,291.411438 157.089188,211.228683 135.235596,131.306793 
	C131.734329,118.502083 129.265961,105.289391 122.652245,93.498398 
	C116.965004,83.359154 108.654785,77.807396 96.658707,78.146553 
	C90.412186,78.323158 84.467461,79.711281 78.522018,81.328667 
	C69.654663,83.740929 65.091667,89.805908 63.269001,98.601906 
	C61.640175,106.462433 62.450737,114.223564 63.605869,121.943306 
	C68.598427,155.308670 75.491028,188.337387 81.631325,221.497360 
	C90.797371,270.997620 100.409210,320.415283 110.058258,370.697906 
M385.666016,174.319275 
	C387.197113,162.620270 388.725739,150.920929 390.259888,139.222336 
	C392.160950,124.725769 395.294617,110.337723 394.686371,95.608284 
	C394.280731,85.785049 390.435608,77.525932 382.261536,71.664749 
	C367.334503,60.961418 344.369537,64.572212 333.409180,79.279465 
	C328.407135,85.991562 326.107391,93.787300 324.272095,101.781151 
	C310.909271,159.984711 300.387634,218.770386 288.371368,277.250000 
	C275.855347,338.161774 263.806152,399.169495 251.583221,460.141388 
	C249.878189,468.646576 248.346695,477.186584 246.601974,486.413177 
	C259.712799,481.649017 271.700714,476.578156 284.290375,473.388611 
	C306.137421,467.853821 327.940582,463.340820 346.487183,482.752625 
	C346.926147,479.806152 347.361389,477.371887 347.642426,474.919922 
	C349.515747,458.573761 351.282501,442.215088 353.225891,425.877380 
	C355.640198,405.581055 358.142059,385.294800 360.697388,365.015686 
	C363.481293,342.922455 366.333405,320.837616 369.223877,298.758026 
	C371.660767,280.143219 374.211487,261.543365 376.682190,242.932953 
	C379.678650,220.362305 382.644043,197.787552 385.666016,174.319275 
M352.342072,657.080261 
	C352.981415,659.997498 353.353271,663.005127 354.302856,665.817566 
	C361.216034,686.292480 385.843964,699.692505 407.987823,695.136047 
	C425.888550,691.452698 437.359161,680.227600 440.353394,662.810791 
	C441.589935,655.618347 441.994141,648.277344 442.657135,640.992981 
	C444.133850,624.767639 445.598022,608.540649 446.950958,592.304626 
	C448.594177,572.585266 450.166290,552.859680 451.674469,533.129517 
	C452.574890,521.350159 453.222778,509.551636 454.112457,497.771423 
	C455.190887,483.492981 456.280762,469.207611 453.611908,454.998810 
	C450.029236,435.924683 440.304504,421.815887 421.078979,415.599152 
	C413.668884,413.203064 406.052887,412.673645 398.363434,413.298492 
	C379.451569,414.835297 368.433441,424.823853 365.594452,444.475464 
	C360.762848,477.919525 359.742889,511.749023 358.239838,545.497498 
	C357.595520,559.965027 356.686218,574.420715 355.911926,588.882568 
	C354.711029,611.312378 353.522614,633.742859 352.342072,657.080261 
M517.392395,664.929810 
	C535.068848,661.124207 544.237244,649.290466 547.625427,632.352112 
	C550.140808,619.777466 550.808167,606.933960 551.463196,594.181702 
	C553.068298,562.934387 554.300964,531.659302 553.700134,500.352264 
	C553.463562,488.025574 548.064148,478.532776 538.325073,470.976471 
	C520.542969,457.179596 491.964081,461.767548 478.360474,470.830994 
	C473.013580,474.393372 469.188995,478.984039 470.201752,486.182678 
	C470.543793,488.613953 470.113342,491.166687 469.933563,493.656555 
	C468.412811,514.715759 466.922607,535.777405 465.315308,556.830078 
	C463.809296,576.556030 461.984711,596.259705 460.689209,615.998657 
	C460.207062,623.344727 458.511047,630.825989 462.013763,638.096008 
	C470.025879,654.725281 486.973663,671.696960 517.392395,664.929810 
z"/>
</svg>