<svg version="1.1" id="Layer_1" xmlns="http://www.w3.org/2000/svg" xmlns:xlink="http://www.w3.org/1999/xlink" x="0px" y="0px"
	 width="100%" viewBox="0 0 736 1024" enable-background="new 0 0 736 1024" xml:space="preserve">
<path fill="#000000" opacity="1.000000" stroke="none" 
	d="
M90.290527,654.550415 
	C83.195488,633.162781 77.194115,611.807007 68.833878,591.286316 
	C60.987644,572.027344 62.985073,553.937439 73.539452,536.346008 
	C86.662796,514.472839 98.703331,492.054047 108.517273,468.442383 
	C114.729805,453.495392 117.271049,437.814667 119.707321,422.024963 
	C120.748360,415.277985 122.275330,408.612030 125.158699,402.359039 
	C134.486725,382.129944 153.498688,372.292847 175.238678,377.573944 
	C200.826080,383.789734 220.014587,398.092499 227.634415,424.400391 
	C231.851440,438.959869 229.374344,453.774109 226.803574,468.426239 
	C222.250641,494.375519 213.379074,519.249268 207.869354,544.958679 
	C203.834839,563.784546 201.543335,582.725098 204.342209,601.948486 
	C206.434006,616.315613 214.460129,624.328552 228.655212,626.593323 
	C229.593124,626.742981 230.575684,626.612854 231.946854,626.612854 
	C232.165344,621.689331 232.541199,617.073242 232.547821,612.456604 
	C232.597580,577.793762 232.572601,543.130737 232.574890,508.467743 
	C232.576920,477.817902 232.572647,447.168030 232.593094,416.518188 
	C232.604980,398.697418 232.160507,380.858063 232.822357,363.060577 
	C233.645721,340.919647 241.364960,322.069061 262.911285,312.280640 
	C284.462067,302.490173 305.935577,303.772095 326.785278,315.080627 
	C328.627930,316.080048 330.094360,317.919495 332.952484,317.905151 
	C340.496765,290.440186 357.976837,273.332153 386.937439,271.107117 
	C415.779480,268.891205 435.476349,282.963440 446.893188,310.017731 
	C463.934387,292.581085 484.149658,285.265503 507.570404,289.873413 
	C532.078796,294.695312 543.707092,312.905243 551.004028,335.416016 
	C561.002075,329.266022 571.405945,325.357208 582.597717,324.199219 
	C602.645874,322.124908 621.233643,325.576355 636.057434,340.526825 
	C645.484863,350.034729 649.204773,362.149017 649.239624,375.159943 
	C649.411194,439.152283 649.327515,503.145416 649.287048,567.138245 
	C649.253540,620.132263 649.223999,673.126465 649.050415,726.120117 
	C648.982239,746.941956 649.411987,767.820374 648.056641,788.571167 
	C645.564392,826.728455 631.588135,860.691772 607.421143,890.354248 
	C587.483948,914.825195 560.629822,927.185181 530.471436,933.246338 
	C503.290558,938.709045 475.851044,940.704712 448.058960,939.599731 
	C419.279297,938.455505 390.507782,936.002319 361.661469,937.360718 
	C347.517395,938.026733 333.422394,938.301514 319.235809,937.536743 
	C296.764740,936.325500 277.153229,928.542969 259.572052,914.819397 
	C196.482071,865.572632 149.362503,804.192322 118.610748,730.223877 
	C108.311119,705.449951 99.024139,680.321472 90.290527,654.550415 
M216.267014,854.236755 
	C232.166656,871.378845 249.473755,886.998657 267.669495,901.647888 
	C280.347778,911.854980 294.328217,919.034973 310.776276,921.172852 
	C321.403809,922.554138 332.047028,923.256836 342.667297,922.587219 
	C370.680328,920.821106 398.604797,922.381897 426.546631,923.935486 
	C459.039368,925.742065 491.463409,925.709900 523.590942,919.572266 
	C543.737793,915.723328 563.006165,909.725525 579.212830,896.322815 
	C600.667480,878.580078 614.425964,855.733643 623.618835,829.838989 
	C631.880066,806.568542 633.274902,782.239868 633.464478,757.942932 
	C633.910522,700.780090 633.670776,643.611816 633.662048,586.445740 
	C633.661804,584.731506 634.330811,582.819397 632.784851,581.089966 
	C605.629395,600.518311 578.273743,605.125122 550.658020,581.325745 
	C541.466797,605.112244 524.600830,619.018616 500.030090,621.000366 
	C477.096436,622.849976 454.191711,621.797668 440.549713,597.719910 
	C426.210724,615.777588 408.003845,623.474609 385.713135,621.331482 
	C363.041626,619.151733 347.299805,606.941711 337.248016,587.276917 
	C307.986847,611.030457 278.409515,610.750000 247.449585,589.681519 
	C247.449585,602.080444 247.556168,614.047363 247.378464,626.010010 
	C247.331009,629.204163 248.993835,630.038025 251.505585,630.467346 
	C255.931091,631.223694 260.352386,632.005737 264.782990,632.730957 
	C291.179688,637.051575 315.422913,646.393860 337.033356,662.518616 
	C360.015076,679.666504 380.168976,699.691040 398.791382,721.358215 
	C402.406403,725.564331 402.141724,730.715576 398.482300,733.816040 
	C394.960052,736.800232 390.950714,735.886169 386.915710,731.347717 
	C370.949036,713.388855 353.996796,696.454285 335.422058,681.150513 
	C316.967377,665.945740 296.377045,655.344360 272.932312,650.118469 
	C257.000366,646.567200 240.768646,644.803284 224.840576,641.310059 
	C203.554016,636.641663 191.655334,624.022705 188.739822,603.260803 
	C186.699860,588.733948 187.995895,574.342224 190.146271,559.995605 
	C193.210159,539.554199 199.128952,519.759338 204.156967,499.763062 
	C208.820908,481.214661 213.531265,462.714417 214.020065,443.372894 
	C214.804016,412.352814 190.568588,396.269409 170.644424,392.597290 
	C155.844864,389.869598 145.381897,395.572083 139.039566,409.206726 
	C136.556534,414.544617 134.816864,420.165588 134.331345,425.959656 
	C131.961472,454.241730 121.570877,479.833496 108.870712,504.788757 
	C102.058380,518.174683 94.259575,530.974426 86.847549,544.001404 
	C79.010483,557.775452 77.314262,571.705444 83.546570,586.561157 
	C89.800026,601.467346 94.359314,616.989807 99.394333,632.333191 
	C111.496216,669.211670 123.888939,705.991333 140.457977,741.169373 
	C159.902313,782.451904 184.674911,820.217896 216.267014,854.236755 
M434.742920,390.500031 
	C434.734924,370.005005 435.294098,349.490448 434.590546,329.019348 
	C433.435150,295.400970 399.859528,275.884369 370.332703,291.471344 
	C354.079071,300.051483 347.408295,314.808014 347.363708,332.432526 
	C347.171417,408.420868 347.297821,484.410004 347.318359,560.398865 
	C347.325989,588.704224 366.332703,606.936951 394.614563,605.801514 
	C418.666687,604.835938 434.619171,588.400940 434.640533,564.474609 
	C434.692047,506.816437 434.710327,449.158234 434.742920,390.500031 
M450.301270,404.499969 
	C450.303162,458.159454 450.331146,511.818939 450.271637,565.478333 
	C450.264740,571.682983 450.782196,577.784912 452.390503,583.762634 
	C455.284454,594.518860 462.267059,601.377930 472.940063,604.212097 
	C480.030029,606.094666 487.320251,606.994568 494.699738,606.603394 
	C517.963257,605.370117 532.767273,592.501099 536.997681,569.558167 
	C538.698914,560.331482 537.872070,550.960266 537.864624,541.642029 
	C537.815674,479.984039 537.791748,418.326019 537.772156,356.668030 
	C537.770630,352.000702 537.680237,347.365845 536.675659,342.762146 
	C532.176270,322.141266 519.480408,301.680023 489.787262,304.152466 
	C467.321167,306.023193 450.342987,323.445801 450.313538,346.007721 
	C450.288483,365.171753 450.304199,384.335876 450.301270,404.499969 
M326.653168,334.859772 
	C313.218689,322.207245 297.227020,319.673828 279.755310,323.017883 
	C262.419769,326.335846 253.002228,337.392914 249.355881,354.108917 
	C247.890762,360.825470 247.621948,367.678986 247.600769,374.477692 
	C247.433075,428.306671 247.409164,482.136292 247.438766,535.965637 
	C247.442520,542.779846 247.666168,549.631287 248.398132,556.399475 
	C249.587494,567.396973 254.406372,576.780640 264.148468,582.340332 
	C281.119720,592.025574 298.719238,592.359436 316.216980,583.479919 
	C324.065857,579.496887 328.905121,572.992126 330.912781,564.304077 
	C333.086945,554.895630 331.848480,545.437439 331.837250,535.983398 
	C331.763123,473.487610 331.709045,410.991669 331.823700,348.496124 
	C331.833130,343.341248 330.886536,338.981873 326.653168,334.859772 
M622.573425,569.066650 
	C623.733765,568.118530 624.838928,567.091431 626.063904,566.235901 
	C631.970154,562.110779 634.003723,556.819519 633.943787,549.338318 
	C633.556824,501.045410 633.750488,452.747833 633.745117,404.451813 
	C633.743896,393.961945 633.967957,383.463654 633.627808,372.984192 
	C633.102112,356.790894 623.729675,345.351166 608.071350,341.296204 
	C605.185608,340.548950 602.213562,339.912018 599.249939,339.726959 
	C585.362061,338.859680 571.984070,340.621857 560.050964,348.467651 
	C556.022217,351.116486 553.270386,354.578735 553.276672,359.923309 
	C553.354187,425.872223 553.333740,491.821259 553.351013,557.770264 
	C553.351440,559.251038 552.998962,560.919189 554.049988,562.121094 
	C562.873718,572.211731 572.493713,581.007202 586.929871,581.687073 
	C600.253418,582.314453 611.646545,577.393005 622.573425,569.066650 
z"/>
</svg>